Coordinates
version=1
nRows=22
nColumns=18
inDegrees=yes

Units are S.I. units (second, meters, Newtons, ...)
If the header above contains a line with 'inDegrees', this indicates whether rotational values are in degrees (yes) or radians (no).

endheader
time	ground_thorax_rot_x	ground_thorax_rot_y	ground_thorax_rot_z	ground_thorax_tx	ground_thorax_ty	ground_thorax_tz	clav_prot	clav_elev	scapula_abduction	scapula_elevation	scapula_upward_rot	scapula_winging	plane_elv	shoulder_elv	axial_rot	elbow_flexion	pro_sup
      0.00000000	      1.16564691	     -7.88520288	    -11.48194883	      0.00000000	      0.00000000	      0.00000000	    -18.03673310	     -4.26398256	     -4.66320164	     -3.71343534	     12.86694851	      4.91275346	    -22.05670487	     16.45456815	     38.99402371	      0.00000000	     34.32000000
      0.01000000	      1.20499157	     -7.96070700	    -11.32308162	      0.00000000	      0.00000000	      0.00000000	    -17.90913502	     -4.18216641	     -4.48852452	     -3.63052059	     12.81513860	      4.87820818	    -22.30122552	     16.65065293	     38.90619278	      0.00000000	     34.32000000
      0.02000000	      1.20734773	     -7.94398589	    -11.38668179	      0.00000000	      0.00000000	      0.00000000	    -17.91999076	     -4.17985042	     -4.46546104	     -3.64876808	     12.88878321	      4.86059445	    -22.28765185	     16.61633344	     38.95427518	      0.00000000	     34.32000000
      0.03000000	      1.45091467	     -8.06083592	    -11.36660185	      0.00000000	      0.00000000	      0.00000000	    -17.92482697	     -3.89545088	     -4.20566026	     -3.58397438	     13.46712975	      4.62972313	    -23.96890528	     15.68787783	     47.12232517	      0.00000000	     34.32000000
      0.04000000	      1.40421231	     -8.04776038	    -11.44444390	      0.00000000	      0.00000000	      0.00000000	    -17.91734617	     -4.07790573	     -4.29972968	     -3.65522535	     13.20886297	      4.74823707	    -22.41340792	     16.51418979	     39.14321932	      0.00000000	     34.32000000
      0.05000000	      1.44721180	     -7.94825081	    -11.41648330	      0.00000000	      0.00000000	      0.00000000	    -17.93806457	     -4.04305965	     -4.36633942	     -3.61948806	     13.17068577	      4.75141310	    -22.52518987	     16.50384033	     39.42005343	      0.00000000	     34.32000000
      0.06000000	      1.32747925	     -7.97947226	    -11.33607192	      0.00000000	      0.00000000	      0.00000000	    -17.86187835	     -4.15163506	     -4.32462723	     -3.64508974	     12.96765658	      4.82143565	    -22.44056814	     16.69035948	     39.04672181	      0.00000000	     34.32000000
      0.07000000	      1.31771163	     -7.94063903	    -11.33956290	      0.00000000	      0.00000000	      0.00000000	    -17.86856127	     -4.14532916	     -4.32478356	     -3.64645568	     12.98994577	      4.81496872	    -22.43855140	     16.66446004	     39.06827038	      0.00000000	     34.32000000
      0.08000000	      1.36012720	     -7.86052549	    -11.38476524	      0.00000000	      0.00000000	      0.00000000	    -18.04033512	     -4.06787407	     -4.42395589	     -3.69644730	     13.37063786	      4.72631802	    -23.77841836	     15.92193025	     44.74527036	      0.00000000	     34.32000000
      0.09000000	      1.42670286	     -7.90305909	    -11.36748031	      0.00000000	      0.00000000	      0.00000000	    -18.03723493	     -3.95803093	     -4.48191882	     -3.59532754	     13.30644201	      4.70973763	    -22.93966046	     15.96833642	     43.89728216	      0.00000000	     34.32000000
      0.10000000	      1.43896581	     -7.80066640	    -11.38207338	      0.00000000	      0.00000000	      0.00000000	    -18.14794334	     -3.95206365	     -4.69678143	     -3.58787592	     13.27384175	      4.73616779	    -22.66572927	     16.05996683	     42.50532098	      0.00000000	     34.32000000
      0.11000000	      1.29986216	     -7.73326068	    -11.33542869	      0.00000000	      0.00000000	      0.00000000	    -18.20433634	     -4.09562671	     -4.89483954	     -3.64004571	     13.04406774	      4.84702664	    -22.51010881	     16.17980230	     41.55629649	      0.00000000	     34.32000000
      0.12000000	      1.16314232	     -7.76683466	    -11.37880832	      0.00000000	      0.00000000	      0.00000000	    -18.16607123	     -4.24024485	     -4.80924600	     -3.74149923	     13.01648439	      4.89053896	    -22.87058721	     16.27877967	     40.03630310	      0.00000000	     34.32000000
      0.13000000	      1.45853865	     -7.91636456	    -11.36420479	      0.00000000	      0.00000000	      0.00000000	    -18.07023297	     -3.91653196	     -4.44059292	     -3.61449922	     13.49362029	      4.65571737	    -24.22654842	     15.50157603	     49.14386820	      0.00000000	     34.32000000
      0.14000000	      1.44440075	     -7.87843626	    -11.36414596	      0.00000000	      0.00000000	      0.00000000	    -18.06224909	     -3.91235036	     -4.42971593	     -3.60996175	     13.49002916	      4.65376381	    -24.22613651	     15.49739441	     49.14194064	      0.00000000	     34.32000000
      0.15000000	      1.29004081	     -7.74314122	    -11.36464439	      0.00000000	      0.00000000	      0.00000000	    -18.09442947	     -4.09771635	     -4.62000344	     -3.67286689	     13.18406932	      4.79228754	    -23.38703341	     16.01659905	     43.87557052	      0.00000000	     34.32000000
      0.16000000	      1.29670451	     -7.71103084	    -11.35509188	      0.00000000	      0.00000000	      0.00000000	    -18.09090603	     -4.09342846	     -4.61133235	     -3.67110887	     13.19044705	      4.78898351	    -23.37870989	     16.00648657	     43.88459485	      0.00000000	     34.32000000
      0.17000000	      1.46578465	     -7.80109592	    -11.31727561	      0.00000000	      0.00000000	      0.00000000	    -18.05909322	     -3.85009776	     -4.45055949	     -3.55706564	     13.47045324	      4.64010980	    -24.13116161	     15.52135866	     48.75711736	      0.00000000	     34.32000000
      0.18000000	      1.50668563	     -7.82457955	    -11.34928121	      0.00000000	      0.00000000	      0.00000000	    -18.08014877	     -3.80683682	     -4.46543206	     -3.53974538	     13.52618328	      4.61744982	    -23.90728764	     15.51330903	     48.68754159	      0.00000000	     34.32000000
      0.19000000	      1.48721083	     -7.82084630	    -11.37447460	      0.00000000	      0.00000000	      0.00000000	    -18.07281950	     -3.79630116	     -4.46307677	     -3.52770485	     13.51250741	      4.61616257	    -23.91092138	     15.51271305	     48.68589473	      0.00000000	     34.32000000
      0.20000000	      1.40736618	     -7.79045024	    -11.36868002	      0.00000000	      0.00000000	      0.00000000	    -18.05676863	     -3.84834851	     -4.46300654	     -3.54833717	     13.44280912	      4.64622142	    -23.70800122	     15.71524867	     45.76974887	      0.00000000	     34.32000000
      0.21000000	      1.35785041	     -7.67183171	    -11.34970333	      0.00000000	      0.00000000	      0.00000000	    -18.14750421	     -3.91195160	     -4.67837835	     -3.56950265	     13.32066346	      4.71235814	    -23.31385947	     15.95409549	     43.09693580	      0.00000000	     34.32000000
